<svg width="371" height="140" viewBox="0 0 371 140" fill="none" xmlns="http://www.w3.org/2000/svg">
<rect width="371" height="140" rx="30" fill="white"/>
<path d="M33.701 38.2393C33.5182 32.3918 37.6125 27 43.1473 27H99.8604C105.395 27 109.489 32.3918 109.307 38.2393C109.131 43.8559 109.359 51.132 111.005 57.0644C112.656 63.0157 115.44 66.7764 120 67.2603V72.7405C115.44 73.2245 112.656 76.9852 111.005 82.9365C109.359 88.8689 109.131 96.1449 109.307 101.762C109.489 107.609 105.395 113 99.8604 113H43.1473C37.6125 113 33.5182 107.608 33.701 101.762C33.8768 96.1449 33.6486 88.8689 32.0021 82.9365C30.3517 76.986 27.56 73.2245 23 72.7405V67.2603C27.56 66.7773 30.3517 63.0157 32.0021 57.0644C33.6486 51.132 33.8761 43.8559 33.701 38.2393Z" fill="url(#paint0_linear_14_91)"/>
<g filter="url(#filter0_d_14_91)">
<path d="M73.0604 92.4745C82.0208 92.4745 87.4203 87.5932 87.4203 79.5419C87.4203 73.456 83.5677 69.05 77.847 68.3525V68.0989C82.05 67.3382 85.3481 62.9957 85.3481 58.146C85.3481 51.2359 80.4448 46.7346 72.9729 46.7346H56.1611V92.4745H73.0604ZM62.699 52.5354H71.3968C76.1251 52.5354 78.8102 54.881 78.8102 59.1284C78.8102 63.6613 75.6873 66.197 70.025 66.197H62.699V52.5354ZM62.699 86.6737V71.6173H71.3383C77.5259 71.6173 80.7365 74.153 80.7365 79.098C80.7365 84.0428 77.6136 86.6737 71.7178 86.6737H62.699Z" fill="url(#paint1_linear_14_91)"/>
</g>
<path d="M154.844 56.7314H163.552C167.329 56.7314 170.179 57.2786 172.101 58.373C174.022 59.4674 174.983 61.356 174.983 64.0386C174.983 65.1597 174.783 66.174 174.383 67.0815C173.996 67.9757 173.429 68.7165 172.681 69.3037C171.934 69.8776 171.013 70.2646 169.918 70.4648V70.665C171.053 70.8652 172.061 71.2189 172.941 71.7261C173.836 72.2332 174.536 72.9606 175.043 73.9082C175.564 74.8558 175.824 76.0837 175.824 77.5918C175.824 79.3802 175.397 80.9017 174.543 82.1562C173.702 83.4108 172.494 84.3651 170.919 85.019C169.358 85.673 167.503 86 165.354 86H154.844V56.7314ZM159.648 68.8032H164.253C166.428 68.8032 167.937 68.4495 168.777 67.7422C169.618 67.0348 170.039 66.0005 170.039 64.6392C170.039 63.2511 169.538 62.2502 168.537 61.6362C167.549 61.0223 165.975 60.7153 163.812 60.7153H159.648V68.8032ZM159.648 72.687V81.9761H164.713C166.956 81.9761 168.53 81.5423 169.438 80.6748C170.346 79.8073 170.799 78.6328 170.799 77.1514C170.799 76.2438 170.592 75.4564 170.179 74.7891C169.778 74.1217 169.118 73.6079 168.197 73.2476C167.276 72.8739 166.035 72.687 164.473 72.687H159.648ZM201.009 74.8691C201.009 76.7109 200.769 78.3459 200.288 79.7739C199.808 81.202 199.107 82.4098 198.186 83.3975C197.265 84.3717 196.157 85.1191 194.863 85.6396C193.568 86.1468 192.107 86.4004 190.479 86.4004C188.957 86.4004 187.562 86.1468 186.294 85.6396C185.027 85.1191 183.925 84.3717 182.991 83.3975C182.07 82.4098 181.356 81.202 180.849 79.7739C180.342 78.3459 180.088 76.7109 180.088 74.8691C180.088 72.4268 180.509 70.3581 181.35 68.6631C182.204 66.9548 183.418 65.6535 184.993 64.7593C186.568 63.8651 188.443 63.418 190.619 63.418C192.661 63.418 194.462 63.8651 196.024 64.7593C197.585 65.6535 198.807 66.9548 199.688 68.6631C200.568 70.3714 201.009 72.4401 201.009 74.8691ZM184.933 74.8691C184.933 76.484 185.127 77.8654 185.514 79.0132C185.914 80.161 186.528 81.0418 187.355 81.6558C188.183 82.2563 189.251 82.5566 190.559 82.5566C191.867 82.5566 192.934 82.2563 193.762 81.6558C194.589 81.0418 195.196 80.161 195.583 79.0132C195.971 77.8654 196.164 76.484 196.164 74.8691C196.164 73.2542 195.971 71.8862 195.583 70.7651C195.196 69.6307 194.589 68.7699 193.762 68.1826C192.934 67.582 191.86 67.2817 190.539 67.2817C188.59 67.2817 187.169 67.9357 186.274 69.2437C185.38 70.5516 184.933 72.4268 184.933 74.8691ZM226.033 74.8691C226.033 76.7109 225.793 78.3459 225.312 79.7739C224.832 81.202 224.131 82.4098 223.21 83.3975C222.29 84.3717 221.182 85.1191 219.887 85.6396C218.593 86.1468 217.131 86.4004 215.503 86.4004C213.981 86.4004 212.587 86.1468 211.319 85.6396C210.051 85.1191 208.95 84.3717 208.016 83.3975C207.095 82.4098 206.381 81.202 205.874 79.7739C205.366 78.3459 205.113 76.7109 205.113 74.8691C205.113 72.4268 205.533 70.3581 206.374 68.6631C207.228 66.9548 208.443 65.6535 210.018 64.7593C211.592 63.8651 213.468 63.418 215.643 63.418C217.685 63.418 219.487 63.8651 221.048 64.7593C222.61 65.6535 223.831 66.9548 224.712 68.6631C225.593 70.3714 226.033 72.4401 226.033 74.8691ZM209.958 74.8691C209.958 76.484 210.151 77.8654 210.538 79.0132C210.938 80.161 211.552 81.0418 212.38 81.6558C213.207 82.2563 214.275 82.5566 215.583 82.5566C216.891 82.5566 217.959 82.2563 218.786 81.6558C219.614 81.0418 220.221 80.161 220.608 79.0132C220.995 77.8654 221.188 76.484 221.188 74.8691C221.188 73.2542 220.995 71.8862 220.608 70.7651C220.221 69.6307 219.614 68.7699 218.786 68.1826C217.959 67.582 216.884 67.2817 215.563 67.2817C213.614 67.2817 212.193 67.9357 211.299 69.2437C210.405 70.5516 209.958 72.4268 209.958 74.8691ZM239.687 82.5967C240.3 82.5967 240.908 82.5433 241.508 82.4365C242.109 82.3164 242.656 82.1763 243.15 82.0161V85.5796C242.629 85.8065 241.955 86 241.128 86.1602C240.3 86.3203 239.44 86.4004 238.545 86.4004C237.291 86.4004 236.163 86.1935 235.162 85.7798C234.161 85.3527 233.367 84.6253 232.78 83.5977C232.193 82.57 231.899 81.1486 231.899 79.3335V67.4219H228.876V65.3198L232.119 63.6582L233.661 58.9136H236.624V63.8384H242.97V67.4219H236.624V79.2734C236.624 80.3945 236.904 81.2287 237.464 81.7759C238.025 82.3231 238.766 82.5967 239.687 82.5967ZM262.549 79.6738C262.549 81.1286 262.195 82.3564 261.488 83.3574C260.78 84.3584 259.746 85.1191 258.385 85.6396C257.037 86.1468 255.382 86.4004 253.42 86.4004C251.872 86.4004 250.537 86.2869 249.416 86.0601C248.308 85.8465 247.261 85.5129 246.273 85.0591V80.9951C247.327 81.4889 248.508 81.916 249.816 82.2764C251.138 82.6367 252.386 82.8169 253.56 82.8169C255.108 82.8169 256.223 82.5767 256.903 82.0962C257.584 81.6024 257.924 80.9484 257.924 80.1343C257.924 79.6538 257.784 79.2267 257.504 78.853C257.237 78.466 256.73 78.0723 255.982 77.6719C255.248 77.2581 254.167 76.7643 252.739 76.1904C251.338 75.6299 250.157 75.0693 249.196 74.5088C248.235 73.9482 247.507 73.2743 247.014 72.4868C246.52 71.686 246.273 70.665 246.273 69.4238C246.273 67.4619 247.047 65.9738 248.595 64.9595C250.157 63.9318 252.219 63.418 254.781 63.418C256.143 63.418 257.424 63.5581 258.625 63.8384C259.84 64.1053 261.027 64.499 262.188 65.0195L260.707 68.563C259.706 68.1226 258.698 67.7622 257.684 67.4819C256.683 67.1883 255.662 67.0415 254.621 67.0415C253.407 67.0415 252.479 67.2284 251.838 67.6021C251.211 67.9757 250.897 68.5096 250.897 69.2036C250.897 69.7241 251.051 70.1646 251.358 70.5249C251.665 70.8853 252.192 71.2456 252.939 71.606C253.7 71.9663 254.755 72.4134 256.103 72.9473C257.424 73.4544 258.565 73.9883 259.526 74.5488C260.5 75.096 261.248 75.77 261.768 76.5708C262.289 77.3716 262.549 78.4059 262.549 79.6738ZM275.882 82.5967C276.496 82.5967 277.103 82.5433 277.704 82.4365C278.304 82.3164 278.851 82.1763 279.345 82.0161V85.5796C278.825 85.8065 278.151 86 277.323 86.1602C276.496 86.3203 275.635 86.4004 274.741 86.4004C273.486 86.4004 272.358 86.1935 271.357 85.7798C270.356 85.3527 269.562 84.6253 268.975 83.5977C268.388 82.57 268.094 81.1486 268.094 79.3335V67.4219H265.071V65.3198L268.314 63.6582L269.856 58.9136H272.819V63.8384H279.165V67.4219H272.819V79.2734C272.819 80.3945 273.099 81.2287 273.66 81.7759C274.22 82.3231 274.961 82.5967 275.882 82.5967ZM295.081 63.418C295.454 63.418 295.861 63.438 296.302 63.478C296.742 63.5181 297.123 63.5715 297.443 63.6382L297.002 68.0425C296.722 67.9624 296.375 67.9023 295.961 67.8623C295.561 67.8223 295.201 67.8022 294.88 67.8022C294.04 67.8022 293.239 67.9424 292.478 68.2227C291.717 68.4896 291.043 68.9033 290.456 69.4639C289.869 70.0111 289.408 70.6984 289.075 71.5259C288.741 72.3534 288.574 73.3143 288.574 74.4087V86H283.85V63.8384H287.533L288.174 67.7422H288.394C288.834 66.9548 289.382 66.234 290.036 65.5801C290.69 64.9261 291.437 64.4056 292.278 64.0186C293.132 63.6182 294.066 63.418 295.081 63.418ZM310.235 63.418C313.038 63.418 315.153 64.0386 316.582 65.2798C318.023 66.521 318.744 68.4562 318.744 71.0854V86H315.4L314.5 82.8569H314.339C313.712 83.6577 313.065 84.3184 312.397 84.8389C311.73 85.3594 310.956 85.7464 310.075 86C309.208 86.2669 308.147 86.4004 306.892 86.4004C305.571 86.4004 304.39 86.1602 303.349 85.6797C302.308 85.1859 301.487 84.4385 300.886 83.4375C300.286 82.4365 299.985 81.1686 299.985 79.6338C299.985 77.3516 300.833 75.6366 302.528 74.4888C304.236 73.341 306.812 72.707 310.255 72.5869L314.099 72.4468V71.2856C314.099 69.7508 313.739 68.6564 313.018 68.0024C312.311 67.3485 311.31 67.0215 310.015 67.0215C308.907 67.0215 307.833 67.1816 306.792 67.502C305.751 67.8223 304.737 68.216 303.749 68.6831L302.228 65.3599C303.309 64.786 304.536 64.3188 305.911 63.9585C307.299 63.5981 308.741 63.418 310.235 63.418ZM314.079 75.4097L311.216 75.5098C308.867 75.5898 307.219 75.9902 306.271 76.7109C305.324 77.4316 304.85 78.4193 304.85 79.6738C304.85 80.7682 305.177 81.569 305.831 82.0762C306.485 82.57 307.346 82.8169 308.414 82.8169C310.042 82.8169 311.39 82.3564 312.458 81.4355C313.539 80.5013 314.079 79.1333 314.079 77.3315V75.4097ZM336.701 63.418C339.33 63.418 341.439 64.3789 343.027 66.3008C344.629 68.2227 345.43 71.0788 345.43 74.8691C345.43 77.3783 345.056 79.4937 344.309 81.2153C343.575 82.9237 342.54 84.2183 341.206 85.0991C339.884 85.9666 338.343 86.4004 336.581 86.4004C335.46 86.4004 334.486 86.2536 333.658 85.96C332.831 85.6663 332.123 85.286 331.536 84.8188C330.949 84.3384 330.455 83.8179 330.055 83.2573H329.774C329.841 83.7912 329.901 84.3851 329.955 85.0391C330.021 85.6797 330.055 86.2669 330.055 86.8008V95.8296H325.33V63.8384H329.174L329.834 66.9014H330.055C330.468 66.2741 330.969 65.6935 331.556 65.1597C332.157 64.6258 332.877 64.2054 333.718 63.8984C334.572 63.5781 335.567 63.418 336.701 63.418ZM335.44 67.2617C334.145 67.2617 333.104 67.522 332.317 68.0425C331.543 68.5496 330.976 69.3171 330.615 70.3447C330.268 71.3724 330.081 72.6603 330.055 74.2085V74.8691C330.055 76.5107 330.222 77.9054 330.555 79.0532C330.902 80.1877 331.469 81.0552 332.257 81.6558C333.058 82.243 334.139 82.5366 335.5 82.5366C336.648 82.5366 337.595 82.223 338.343 81.5957C339.104 80.9684 339.671 80.0742 340.044 78.9131C340.418 77.752 340.605 76.384 340.605 74.8091C340.605 72.4201 340.178 70.5649 339.324 69.2437C338.483 67.9224 337.188 67.2617 335.44 67.2617Z" fill="black"/>
<defs>
<filter id="filter0_d_14_91" x="52.2305" y="43.7867" width="39.1204" height="53.601" filterUnits="userSpaceOnUse" color-interpolation-filters="sRGB">
<feFlood flood-opacity="0" result="BackgroundImageFix"/>
<feColorMatrix in="SourceAlpha" type="matrix" values="0 0 0 0 0 0 0 0 0 0 0 0 0 0 0 0 0 0 127 0" result="hardAlpha"/>
<feOffset dy="0.98264"/>
<feGaussianBlur stdDeviation="1.96528"/>
<feColorMatrix type="matrix" values="0 0 0 0 0 0 0 0 0 0 0 0 0 0 0 0 0 0 0.15 0"/>
<feBlend mode="normal" in2="BackgroundImageFix" result="effect1_dropShadow_14_91"/>
<feBlend mode="normal" in="SourceGraphic" in2="effect1_dropShadow_14_91" result="shape"/>
</filter>
<linearGradient id="paint0_linear_14_91" x1="37.4139" y1="29.276" x2="128.976" y2="94.6028" gradientUnits="userSpaceOnUse">
<stop stop-color="#9013FE"/>
<stop offset="1" stop-color="#6610F2"/>
</linearGradient>
<linearGradient id="paint1_linear_14_91" x1="59.1188" y1="49.7446" x2="81.2093" y2="83.325" gradientUnits="userSpaceOnUse">
<stop stop-color="white"/>
<stop offset="1" stop-color="#F1E5FC"/>
</linearGradient>
</defs>
</svg>
