<svg width="50" height="50" viewBox="0 0 50 50" fill="none" xmlns="http://www.w3.org/2000/svg">
<path fill-rule="evenodd" clip-rule="evenodd" d="M24.925 0C18.3147 0.000851698 11.9754 2.7003 7.30127 7.50468C2.62711 12.3091 0.000828613 18.825 0 25.6194C0 36.9323 7.18749 46.5202 16.9719 49.9796C18.1968 50.137 18.6531 49.3501 18.6531 48.7205V44.32C11.775 45.8939 10.2469 40.8638 10.2469 40.8638C9.17499 37.8766 7.49374 37.0896 7.49374 37.0896C5.19999 35.5189 7.64374 35.5189 7.64374 35.5189C10.0906 35.6763 11.4687 38.1914 11.4687 38.1914C13.7625 42.1197 17.2781 41.018 18.6562 40.3916C18.8062 38.6636 19.5718 37.565 20.1843 36.9355C14.6781 36.3059 8.86874 34.1056 8.86874 24.2029C8.86874 21.3763 9.78436 19.1728 11.4687 17.2873C11.3125 16.8151 10.3969 14.1459 11.775 10.6865C11.775 10.6865 13.9156 10.057 18.6531 13.359C20.6406 12.7294 22.7843 12.572 24.925 12.572C27.0656 12.572 29.2062 12.8868 31.1937 13.359C35.9343 10.0602 38.0749 10.6865 38.0749 10.6865C39.4499 14.1459 38.5312 16.8151 38.3781 17.4447C40.0621 19.3304 40.9908 21.8006 40.9781 24.3603C40.9781 34.263 35.1656 36.3059 29.6656 36.9355C30.5812 37.7192 31.3468 39.2899 31.3468 41.6476V48.7205C31.3468 49.3501 31.8031 50.1338 33.0281 49.9796C37.9844 48.2604 42.2896 44.9835 45.3351 40.6121C48.3807 36.2407 50.0125 30.996 49.9999 25.6194C49.8468 11.4735 38.6874 0 24.925 0Z" fill="black"/>
</svg>
