<svg width="331" height="141" viewBox="0 0 331 141" fill="none" xmlns="http://www.w3.org/2000/svg">
<rect y="0.330811" width="331" height="140" rx="30" fill="black"/>
<path d="M131.753 55.2051C131.408 55.0869 131.061 54.9716 130.713 54.8592C129.557 54.4855 128.867 53.2924 129.113 52.1022C131.477 40.6687 129.932 31.4577 124.654 28.425C119.594 25.5176 111.318 28.5492 102.96 35.7976C102.686 36.0357 102.414 36.276 102.144 36.5186C101.236 37.3348 99.8513 37.3367 98.9378 36.5267C90.1782 28.7765 81.3982 25.5101 76.1261 28.5515C71.0704 31.4679 69.5733 40.1269 71.7012 50.9627C72.055 52.7562 71.0153 54.5485 69.2834 55.1338C69.1308 55.1854 68.9792 55.2373 68.8284 55.2897C58.5585 58.8578 52 64.4494 52 70.2494C52 76.2397 59.0408 82.2481 69.7374 85.8914C71.1875 86.3833 72.0577 87.8873 71.751 89.3875C71.6984 89.6444 71.6475 89.9016 71.5982 90.1592C69.5695 100.807 71.1537 109.261 76.1958 112.159C81.4035 115.152 90.1441 112.076 98.6547 104.662C99.8102 103.653 101.55 103.65 102.701 104.665C102.9 104.84 103.1 105.015 103.301 105.188C111.545 112.257 119.687 115.111 124.724 112.205C129.927 109.204 131.618 100.122 129.423 89.0717C129.373 88.8236 129.322 88.5758 129.269 88.3283C129.048 87.296 129.642 86.2578 130.645 85.9265C141.765 82.2553 149 76.3197 149 70.2494C149 64.4283 142.23 58.7989 131.753 55.2051ZM129.342 82.0072C128.441 82.3039 127.485 81.7913 127.178 80.8943C126.427 78.6955 125.545 76.4249 124.542 74.1014C123.485 71.6542 123.473 68.8789 124.506 66.4214C125.267 64.6094 125.957 62.8227 126.572 61.0726C127.128 59.4883 128.816 58.5647 130.405 59.1093C139.381 62.1889 144.856 66.7413 144.856 70.2494C144.856 73.9859 138.943 78.8367 129.342 82.0072ZM125.358 89.8737C126.329 94.7596 126.467 99.1773 125.824 102.631C125.246 105.734 124.085 107.803 122.648 108.632C119.591 110.395 113.054 108.103 106.004 102.057C104.614 100.863 104.559 98.7664 105.741 97.3666C106.902 95.9926 108.06 94.5357 109.209 93.0038C110.826 90.8481 113.251 89.4392 115.924 89.0992C118.197 88.8102 120.391 88.4558 122.489 88.0379C123.794 87.778 125.097 88.5688 125.358 89.8737ZM85.0694 108.327C82.0829 109.378 79.7041 109.408 78.2662 108.582C75.2065 106.824 73.9345 100.035 75.6695 90.9294C76.014 89.1322 77.7994 88.0399 79.6009 88.3608C81.4077 88.6827 83.2875 88.9586 85.2306 89.1881C87.9 89.5035 90.3322 90.883 91.9755 93.0102C93.3284 94.7615 94.7039 96.4298 96.0899 98.0003C97.0106 99.0438 96.9762 100.638 95.9281 101.553C92.1644 104.832 88.3932 107.157 85.0694 108.327ZM71.0779 81.9842C66.348 80.3731 62.4419 78.2794 59.7645 75.9947C57.3585 73.9418 56.1441 71.9032 56.1441 70.2494C56.1441 66.7296 61.4098 62.2402 70.1924 59.189C72.0307 58.5508 73.9834 59.6291 74.6312 61.4641C75.2166 63.122 75.8638 64.8042 76.5695 66.5011C77.5936 68.9638 77.5949 71.7366 76.5709 74.1992C75.707 76.2766 74.9293 78.3319 74.2449 80.3457C73.7965 81.6651 72.3975 82.4319 71.0779 81.9842ZM75.768 50.1694C73.9451 40.8858 75.1557 33.8829 78.2025 32.1252C81.4475 30.2532 88.6232 32.9223 96.1865 39.6145C97.006 40.3413 97.038 41.5961 96.3088 42.4134C94.8048 44.0995 93.3145 45.9007 91.8521 47.7999C90.2413 49.8918 87.8635 51.2613 85.2454 51.6016C83.2506 51.8608 81.3051 52.1703 79.4234 52.5276C77.7559 52.8443 76.0969 51.8345 75.768 50.1694ZM117.61 60.4656C116.48 58.5211 118.045 56.089 120.255 56.5012C120.352 56.5193 120.449 56.5375 120.545 56.5558C122.146 56.8597 123.091 58.5035 122.545 60.0382C122.532 60.0733 122.52 60.1085 122.507 60.1436C121.73 62.3193 118.771 62.4632 117.61 60.4656ZM98.5443 46.1378C99.6038 44.9134 101.487 44.9154 102.542 46.1443C102.588 46.1989 102.635 46.2537 102.682 46.3086C104.158 48.0383 102.814 50.6366 100.54 50.6359C98.2598 50.6351 96.9186 48.0251 98.4063 46.2976C98.4523 46.2442 98.4983 46.191 98.5443 46.1378ZM83.3742 60.4935C82.2389 62.4555 79.3265 62.3172 78.5701 60.1804C78.5466 60.1142 78.5233 60.048 78.5001 59.9819C77.9634 58.4543 78.9082 56.8227 80.4999 56.5263C80.5691 56.5134 80.6384 56.5006 80.7078 56.4879C82.9352 56.0785 84.5087 58.5335 83.3742 60.4935ZM83.3905 80.205C84.561 82.2195 82.9652 84.7539 80.6698 84.3549C80.6216 84.3465 80.5736 84.3381 80.5256 84.3297C78.8913 84.0426 77.9172 82.3724 78.4675 80.8071C78.5009 80.7119 78.5346 80.6167 78.5684 80.5214C79.3293 78.3802 82.2491 78.2401 83.3905 80.205ZM102.624 94.6442C101.556 95.9104 99.6915 95.8479 98.6084 94.595C98.5357 94.5108 98.463 94.4264 98.3903 94.3417C96.9171 92.6245 98.2374 90.0349 100.5 90.0349C102.851 90.0349 104.139 92.847 102.624 94.6442ZM117.626 80.1767C118.804 78.1402 121.82 78.2625 122.633 80.4708C122.648 80.5137 122.664 80.5565 122.68 80.5993C123.258 82.1793 122.286 83.8819 120.632 84.1893C120.533 84.2077 120.434 84.226 120.334 84.2441C118.068 84.6566 116.473 82.17 117.626 80.1767ZM114.036 78.1136C111.256 82.9272 106.059 85.909 100.5 85.9061C94.9511 85.9061 89.7636 82.9344 86.9765 78.1363C85.587 75.7456 84.2839 73.3064 83.0692 70.8232C82.9225 70.5233 82.9223 70.1725 83.0686 69.8725C84.2802 67.3887 85.5795 64.9484 86.9642 62.5561C86.9642 62.556 86.9642 62.556 86.9641 62.556C86.9641 62.5561 86.9641 62.556 86.9641 62.556C88.3487 60.1623 89.8186 57.8187 91.371 55.5297C91.5577 55.2544 91.8603 55.08 92.1921 55.0565C94.9103 54.8641 97.6911 54.7641 100.5 54.7641C106.051 54.7641 111.237 57.7328 114.023 62.534C116.818 67.3359 116.822 73.3062 114.036 78.1136ZM122.585 32.0022C125.833 33.8689 127.096 41.3967 125.055 51.2685C124.834 52.3386 123.764 52.9914 122.694 52.771C120.481 52.3152 118.175 51.9287 115.798 51.615C113.171 51.2684 110.788 49.8876 109.182 47.781C107.955 46.1733 106.715 44.6429 105.468 43.2008C104.371 41.9324 104.415 40.012 105.681 38.9119C112.842 32.7018 119.535 30.2498 122.585 32.0022ZM100.5 61.618C105.284 61.618 109.162 65.4825 109.162 70.2494C109.162 75.0163 105.284 78.8809 100.5 78.8809C95.7163 78.8809 91.8382 75.0163 91.8382 70.2494C91.8382 65.4825 95.7163 61.618 100.5 61.618Z" fill="#00D8FF"/>
<path d="M180.072 57.0623C182.594 57.0623 184.676 57.3692 186.318 57.9832C187.973 58.5971 189.201 59.5313 190.001 60.7859C190.816 62.0404 191.223 63.6353 191.223 65.5706C191.223 67.012 190.956 68.2398 190.422 69.2542C189.888 70.2685 189.187 71.1093 188.32 71.7766C187.452 72.4439 186.525 72.9778 185.537 73.3782L193.845 86.3308H188.42L181.353 74.5994H176.648V86.3308H171.844V57.0623H180.072ZM179.751 61.0662H176.648V70.6355H179.972C182.201 70.6355 183.815 70.2218 184.816 69.3943C185.831 68.5668 186.338 67.3456 186.338 65.7307C186.338 64.0357 185.797 62.8346 184.716 62.1272C183.649 61.4198 181.994 61.0662 179.751 61.0662ZM206.377 63.7488C208.353 63.7488 210.048 64.1558 211.462 64.97C212.877 65.7841 213.965 66.9386 214.726 68.4333C215.486 69.9281 215.867 71.7166 215.867 73.7986V76.321H201.072C201.126 78.4698 201.7 80.1248 202.794 81.2859C203.902 82.447 205.45 83.0276 207.438 83.0276C208.853 83.0276 210.121 82.8941 211.242 82.6272C212.377 82.3469 213.544 81.9399 214.746 81.406V85.2297C213.638 85.7502 212.51 86.1306 211.362 86.3708C210.215 86.6111 208.84 86.7312 207.238 86.7312C205.063 86.7312 203.148 86.3108 201.493 85.47C199.851 84.6158 198.563 83.3479 197.629 81.6663C196.708 79.9846 196.248 77.8959 196.248 75.4001C196.248 72.9177 196.668 70.809 197.509 69.074C198.35 67.3389 199.531 66.0177 201.052 65.1101C202.574 64.2026 204.349 63.7488 206.377 63.7488ZM206.377 67.2922C204.896 67.2922 203.695 67.7727 202.774 68.7336C201.866 69.6946 201.333 71.1026 201.172 72.9578H211.262C211.249 71.85 211.062 70.8691 210.702 70.0149C210.355 69.1607 209.821 68.4934 209.1 68.0129C208.393 67.5325 207.485 67.2922 206.377 67.2922ZM229.86 63.7488C232.663 63.7488 234.778 64.3694 236.207 65.6106C237.648 66.8518 238.369 68.787 238.369 71.4163V86.3308H235.025L234.125 83.1877H233.964C233.337 83.9885 232.69 84.6492 232.022 85.1697C231.355 85.6902 230.581 86.0772 229.7 86.3308C228.833 86.5977 227.772 86.7312 226.517 86.7312C225.196 86.7312 224.015 86.491 222.974 86.0105C221.933 85.5167 221.112 84.7693 220.511 83.7683C219.911 82.7673 219.61 81.4994 219.61 79.9646C219.61 77.6824 220.458 75.9674 222.153 74.8196C223.861 73.6718 226.437 73.0378 229.88 72.9177L233.724 72.7776V71.6165C233.724 70.0816 233.364 68.9872 232.643 68.3333C231.936 67.6793 230.935 67.3523 229.64 67.3523C228.532 67.3523 227.458 67.5125 226.417 67.8328C225.376 68.1531 224.362 68.5468 223.374 69.0139L221.853 65.6907C222.934 65.1168 224.161 64.6497 225.536 64.2893C226.924 63.929 228.366 63.7488 229.86 63.7488ZM233.704 75.7405L230.841 75.8406C228.492 75.9207 226.844 76.321 225.896 77.0417C224.949 77.7625 224.475 78.7501 224.475 80.0046C224.475 81.099 224.802 81.8998 225.456 82.407C226.11 82.9008 226.971 83.1477 228.039 83.1477C229.667 83.1477 231.015 82.6873 232.083 81.7664C233.164 80.8321 233.704 79.4641 233.704 77.6624V75.7405ZM253.884 86.7312C251.788 86.7312 249.973 86.3241 248.438 85.51C246.904 84.6959 245.722 83.448 244.895 81.7664C244.068 80.0847 243.654 77.9493 243.654 75.3601C243.654 72.6641 244.108 70.462 245.015 68.7537C245.923 67.0453 247.177 65.7841 248.779 64.97C250.394 64.1558 252.242 63.7488 254.324 63.7488C255.646 63.7488 256.84 63.8822 257.908 64.1492C258.989 64.4028 259.903 64.7164 260.65 65.0901L259.249 68.8538C258.435 68.5201 257.601 68.2398 256.747 68.0129C255.892 67.7861 255.072 67.6726 254.284 67.6726C252.99 67.6726 251.909 67.9596 251.041 68.5334C250.187 69.1073 249.546 69.9615 249.119 71.0959C248.705 72.2304 248.499 73.6384 248.499 75.3201C248.499 76.9483 248.712 78.323 249.139 79.4441C249.566 80.5518 250.2 81.3927 251.041 81.9666C251.882 82.5271 252.916 82.8074 254.144 82.8074C255.359 82.8074 256.446 82.6606 257.407 82.3669C258.368 82.0733 259.276 81.693 260.13 81.2258V85.3098C259.289 85.7903 258.388 86.144 257.427 86.3708C256.466 86.6111 255.285 86.7312 253.884 86.7312ZM273.583 82.9275C274.197 82.9275 274.804 82.8741 275.405 82.7673C276.005 82.6472 276.553 82.5071 277.046 82.3469V85.9104C276.526 86.1373 275.852 86.3308 275.024 86.491C274.197 86.6511 273.336 86.7312 272.442 86.7312C271.187 86.7312 270.06 86.5243 269.059 86.1106C268.058 85.6835 267.264 84.9561 266.676 83.9285C266.089 82.9008 265.795 81.4794 265.795 79.6643V67.7527H262.772V65.6506L266.016 63.989L267.557 59.2444H270.52V64.1692H276.866V67.7527H270.52V79.6042C270.52 80.7253 270.8 81.5595 271.361 82.1067C271.921 82.6539 272.662 82.9275 273.583 82.9275Z" fill="#00D8FF"/>
</svg>
