<svg width="492" height="141" viewBox="0 0 492 141" fill="none" xmlns="http://www.w3.org/2000/svg">
<rect y="0.330811" width="492" height="140" rx="30" fill="black"/>
<path d="M54.0357 27.3308C52.0116 27.3308 50.2038 27.7545 48.6609 28.5897C47.1769 29.3928 45.9304 30.5902 44.9543 32.1477C44.04 33.6074 43.3663 35.3835 42.9508 37.4269C42.1519 41.3657 42.3245 46.2963 43.4527 51.6833C43.6927 52.8291 43.0248 53.9795 41.9081 54.3306C41.7103 54.3928 41.5128 54.4558 41.3156 54.5197C35.879 56.293 31.3329 58.61 28.1685 61.2207C26.5279 62.5725 25.2585 64.0021 24.3901 65.4682C23.4674 67.0278 23 68.6268 23 70.2222C23 73.4202 24.8934 76.661 28.4763 79.6003C31.8492 82.3688 36.6198 84.7866 42.268 86.5934C43.1558 86.8751 43.6851 87.7912 43.4882 88.7016C43.4393 88.9272 43.3919 89.153 43.3457 89.3791C42.2718 94.6704 42.1466 99.5117 42.9806 103.38C43.4145 105.384 44.1026 107.128 45.0276 108.564C46.0098 110.09 47.2578 111.269 48.735 112.065C50.2916 112.905 52.1231 113.331 54.18 113.331C56.9793 113.331 60.1101 112.554 63.4829 111.023C66.7909 109.521 70.1676 107.371 73.5183 104.632C73.9978 104.239 74.4698 103.839 74.934 103.431C75.0397 103.339 75.1755 103.287 75.3162 103.287H75.8914C75.8918 103.287 75.8921 103.287 75.8921 103.286C75.8921 103.286 75.8925 103.285 75.8929 103.285H99.9399C103.447 103.285 106.473 102.807 109.016 101.849C111.565 100.893 113.638 99.6024 115.271 97.9827C116.903 96.363 118.093 94.429 118.856 92.1834C119.62 89.9564 120 87.5444 120 84.9673C120.002 80.4741 119.131 76.756 117.407 73.7731C115.698 70.8324 113.182 68.9247 109.861 68.0502C109.835 68.0406 109.813 68.0235 109.799 68.0016C109.797 67.9988 109.795 67.9959 109.794 67.993C109.772 67.9537 109.773 67.9026 109.794 67.8631C109.805 67.8431 109.822 67.826 109.842 67.8138C112.315 66.5277 114.215 64.6966 115.547 62.3603C116.888 60.004 117.56 57.1682 117.56 53.8538C117.56 48.3853 116.08 44.3172 113.135 41.6115C110.19 38.9051 106.269 37.5605 101.388 37.5605H76.7066C75.6505 37.5605 74.6344 37.1714 73.8231 36.4952C70.3432 33.6074 66.8741 31.3418 63.5081 29.7671C60.0573 28.1503 56.8701 27.3308 54.0357 27.3308ZM54.0647 33.7553C55.8176 33.7553 58.0868 34.399 60.6241 35.6179C63.3745 36.9396 66.3571 38.9058 69.2495 41.3079C69.5497 41.5576 69.5704 42.0088 69.3013 42.2918C67.6513 44.0269 66.0181 45.8836 64.4188 47.8432C63.0668 49.4998 61.1257 50.5731 59.0024 50.8249C56.682 51.1 54.4233 51.4359 52.244 51.8296C51.3171 51.9971 50.4103 51.4223 50.2152 50.5009L50.2045 50.4451C49.3239 46.2334 49.1092 42.386 49.5836 39.3231C49.9945 36.6903 50.9125 34.8084 52.1079 34.1611C52.6043 33.8917 53.2627 33.7553 54.0647 33.7553ZM72.1641 49.0619C73.1196 47.9553 74.9214 48.6358 74.9214 50.0979V90.0065C74.9214 91.6384 72.8948 92.3939 71.8265 91.1603L69.8048 88.8254C68.7844 87.6466 67.1499 85.466 65.2007 82.6853C64.0848 81.0968 63.0133 79.4813 61.9874 77.8405L61.9286 77.7462C60.9945 76.2394 60.3018 75.0263 59.7442 74.0517C59.0849 72.8973 58.442 71.7346 57.8158 70.5642C57.7417 70.4257 57.7426 70.2593 57.8179 70.1215L57.8256 70.1093C58.555 68.7183 59.3226 67.3222 60.1123 65.9583L60.12 65.9469L60.9579 64.4251L62.1952 62.5067L62.2036 62.4939C62.6657 61.758 63.1453 61.0149 63.6288 60.2862L64.4812 58.9701C65.6154 57.214 66.5266 55.9329 67.9648 54.076C68.7401 53.0779 69.4748 52.2006 70.6388 50.8395L70.6419 50.8367L70.6992 50.7688L70.7221 50.7416C71.1941 50.1779 71.6715 49.6228 72.1397 49.0905L72.1549 49.0727L72.1641 49.0619ZM84.5833 46.8707H100.058C102.653 46.8707 104.639 47.553 106.013 48.8983C107.387 50.2429 108.073 52.5821 108.073 55.8986C108.073 58.8487 107.31 61.0971 105.782 62.6818C104.255 64.2664 102.347 65.0409 100.056 65.0409H84.5817C84.5252 65.0409 84.4786 64.9845 84.4786 64.9159L84.4794 46.9957C84.4794 46.9264 84.5252 46.8707 84.5833 46.8707ZM54.1937 58.0355C55.4197 57.8225 56.2884 59.1769 55.6365 60.2368C55.0094 61.2565 53.4872 61.1475 53.065 60.0274C53.0568 60.0056 53.0486 59.9838 53.0404 59.962C52.7233 59.1185 53.2507 58.1999 54.1385 58.0451C54.1569 58.0419 54.1753 58.0387 54.1937 58.0355ZM43.5794 60.6005C44.7997 60.2043 46.092 60.8844 46.5434 62.0854C47.135 63.6594 47.787 65.2542 48.4957 66.8619C49.4668 69.0651 49.4681 71.5785 48.4972 73.7819C47.6203 75.7716 46.8289 77.7414 46.1295 79.676C45.8877 80.345 45.169 80.7191 44.4914 80.5026C39.7956 79.0023 35.8858 77.0639 33.1828 74.8991C31.1145 73.2422 29.8802 71.4947 29.8802 70.2244C29.8802 68.9198 31.1145 67.2393 33.2683 65.6104C35.7758 63.7142 39.3435 61.9809 43.5794 60.6005ZM84.5833 73.328C84.5833 73.3276 84.5836 73.3273 84.584 73.3273H101.35C104.252 73.3273 106.481 74.1753 108.099 75.9436C109.718 77.7112 110.512 80.1997 110.512 83.4612C110.512 86.7771 109.703 89.357 108.1 91.1624C106.512 92.9857 104.252 93.8917 101.351 93.8917H84.5833C84.526 93.8917 84.4794 93.8352 84.4794 93.7659V73.453C84.4794 73.3847 84.5248 73.3292 84.5825 73.3287C84.5829 73.3287 84.5833 73.3284 84.5833 73.328ZM53.0331 80.6948C53.4702 79.5363 55.0442 79.4232 55.6953 80.4765C56.3696 81.5673 55.4866 82.967 54.2211 82.7597C54.2004 82.7563 54.1797 82.7529 54.159 82.7495C53.2317 82.597 52.6773 81.6402 53.0083 80.7607C53.0165 80.7388 53.0248 80.7168 53.0331 80.6948ZM50.5344 88.6517C50.5342 88.6515 50.5343 88.6512 50.5346 88.6513C53.7894 89.2742 57.3192 89.7605 61.0593 90.1002C61.925 90.1788 62.72 90.6114 63.2577 91.2944C65.1566 93.7064 67.1081 95.978 69.0838 98.0765C69.5469 98.5683 69.5133 99.3496 68.9906 99.7774C65.2816 102.811 61.5567 105.003 58.2212 106.119L58.1517 106.142C56.6562 106.636 55.3211 106.886 54.1854 106.886C53.3483 106.886 52.6715 106.75 52.1751 106.483C50.9668 105.83 50.0266 103.989 49.595 101.431C49.0909 98.4507 49.2673 94.6962 50.1045 90.5737C50.2351 89.9343 50.3779 89.2906 50.5344 88.652C50.5345 88.6519 50.5344 88.6518 50.5344 88.6517Z" fill="#41E0FF"/>
<path d="M163.072 57.0623C165.594 57.0623 167.676 57.3692 169.318 57.9832C170.973 58.5971 172.201 59.5313 173.001 60.7859C173.816 62.0404 174.223 63.6353 174.223 65.5706C174.223 67.012 173.956 68.2398 173.422 69.2542C172.888 70.2685 172.187 71.1093 171.32 71.7766C170.452 72.4439 169.525 72.9778 168.537 73.3782L176.845 86.3308H171.42L164.353 74.5994H159.648V86.3308H154.844V57.0623H163.072ZM162.751 61.0662H159.648V70.6355H162.972C165.201 70.6355 166.815 70.2218 167.816 69.3943C168.831 68.5668 169.338 67.3456 169.338 65.7307C169.338 64.0357 168.797 62.8346 167.716 62.1272C166.649 61.4198 164.994 61.0662 162.751 61.0662ZM189.377 63.7488C191.353 63.7488 193.048 64.1558 194.462 64.97C195.877 65.7841 196.965 66.9386 197.726 68.4333C198.486 69.9281 198.867 71.7166 198.867 73.7986V76.321H184.072C184.126 78.4698 184.7 80.1248 185.794 81.2859C186.902 82.447 188.45 83.0276 190.438 83.0276C191.853 83.0276 193.121 82.8941 194.242 82.6272C195.377 82.3469 196.544 81.9399 197.746 81.406V85.2297C196.638 85.7502 195.51 86.1306 194.362 86.3708C193.215 86.6111 191.84 86.7312 190.238 86.7312C188.063 86.7312 186.148 86.3108 184.493 85.47C182.851 84.6158 181.563 83.3479 180.629 81.6663C179.708 79.9846 179.248 77.8959 179.248 75.4001C179.248 72.9177 179.668 70.809 180.509 69.074C181.35 67.3389 182.531 66.0177 184.052 65.1101C185.574 64.2026 187.349 63.7488 189.377 63.7488ZM189.377 67.2922C187.896 67.2922 186.695 67.7727 185.774 68.7336C184.866 69.6946 184.333 71.1026 184.172 72.9578H194.262C194.249 71.85 194.062 70.8691 193.702 70.0149C193.355 69.1607 192.821 68.4934 192.1 68.0129C191.393 67.5325 190.485 67.2922 189.377 67.2922ZM212.86 63.7488C215.663 63.7488 217.778 64.3694 219.207 65.6106C220.648 66.8518 221.369 68.787 221.369 71.4163V86.3308H218.025L217.125 83.1877H216.964C216.337 83.9885 215.69 84.6492 215.022 85.1697C214.355 85.6902 213.581 86.0772 212.7 86.3308C211.833 86.5977 210.772 86.7312 209.517 86.7312C208.196 86.7312 207.015 86.491 205.974 86.0105C204.933 85.5167 204.112 84.7693 203.511 83.7683C202.911 82.7673 202.61 81.4994 202.61 79.9646C202.61 77.6824 203.458 75.9674 205.153 74.8196C206.861 73.6718 209.437 73.0378 212.88 72.9177L216.724 72.7776V71.6165C216.724 70.0816 216.364 68.9872 215.643 68.3333C214.936 67.6793 213.935 67.3523 212.64 67.3523C211.532 67.3523 210.458 67.5125 209.417 67.8328C208.376 68.1531 207.362 68.5468 206.374 69.0139L204.853 65.6907C205.934 65.1168 207.161 64.6497 208.536 64.2893C209.924 63.929 211.366 63.7488 212.86 63.7488ZM216.704 75.7405L213.841 75.8406C211.492 75.9207 209.844 76.321 208.896 77.0417C207.949 77.7625 207.475 78.7501 207.475 80.0046C207.475 81.099 207.802 81.8998 208.456 82.407C209.11 82.9008 209.971 83.1477 211.039 83.1477C212.667 83.1477 214.015 82.6873 215.083 81.7664C216.164 80.8321 216.704 79.4641 216.704 77.6624V75.7405ZM236.884 86.7312C234.788 86.7312 232.973 86.3241 231.438 85.51C229.904 84.6959 228.722 83.448 227.895 81.7664C227.068 80.0847 226.654 77.9493 226.654 75.3601C226.654 72.6641 227.108 70.462 228.015 68.7537C228.923 67.0453 230.177 65.7841 231.779 64.97C233.394 64.1558 235.242 63.7488 237.324 63.7488C238.646 63.7488 239.84 63.8822 240.908 64.1492C241.989 64.4028 242.903 64.7164 243.65 65.0901L242.249 68.8538C241.435 68.5201 240.601 68.2398 239.747 68.0129C238.892 67.7861 238.072 67.6726 237.284 67.6726C235.99 67.6726 234.909 67.9596 234.041 68.5334C233.187 69.1073 232.546 69.9615 232.119 71.0959C231.705 72.2304 231.499 73.6384 231.499 75.3201C231.499 76.9483 231.712 78.323 232.139 79.4441C232.566 80.5518 233.2 81.3927 234.041 81.9666C234.882 82.5271 235.916 82.8074 237.144 82.8074C238.359 82.8074 239.446 82.6606 240.407 82.3669C241.368 82.0733 242.276 81.693 243.13 81.2258V85.3098C242.289 85.7903 241.388 86.144 240.427 86.3708C239.466 86.6111 238.285 86.7312 236.884 86.7312ZM256.583 82.9275C257.197 82.9275 257.804 82.8741 258.405 82.7673C259.005 82.6472 259.553 82.5071 260.046 82.3469V85.9104C259.526 86.1373 258.852 86.3308 258.024 86.491C257.197 86.6511 256.336 86.7312 255.442 86.7312C254.187 86.7312 253.06 86.5243 252.059 86.1106C251.058 85.6835 250.264 84.9561 249.676 83.9285C249.089 82.9008 248.795 81.4794 248.795 79.6643V67.7527H245.772V65.6506L249.016 63.989L250.557 59.2444H253.52V64.1692H259.866V67.7527H253.52V79.6042C253.52 80.7253 253.8 81.5595 254.361 82.1067C254.921 82.6539 255.662 82.9275 256.583 82.9275ZM275.682 57.0623H284.39C288.167 57.0623 291.017 57.6095 292.938 58.7039C294.86 59.7983 295.821 61.6868 295.821 64.3694C295.821 65.4905 295.621 66.5048 295.221 67.4124C294.834 68.3066 294.266 69.0473 293.519 69.6345C292.772 70.2084 291.851 70.5955 290.756 70.7957V70.9958C291.891 71.196 292.898 71.5497 293.779 72.0569C294.674 72.564 295.374 73.2914 295.881 74.239C296.402 75.1866 296.662 76.4145 296.662 77.9226C296.662 79.711 296.235 81.2325 295.381 82.4871C294.54 83.7416 293.332 84.6959 291.757 85.3499C290.196 86.0038 288.341 86.3308 286.192 86.3308H275.682V57.0623ZM280.486 69.134H285.091C287.266 69.134 288.774 68.7804 289.615 68.073C290.456 67.3656 290.876 66.3313 290.876 64.97C290.876 63.5819 290.376 62.581 289.375 61.967C288.387 61.3531 286.812 61.0461 284.65 61.0461H280.486V69.134ZM280.486 73.0178V82.3069H285.551C287.793 82.3069 289.368 81.8731 290.276 81.0056C291.183 80.1381 291.637 78.9636 291.637 77.4822C291.637 76.5746 291.43 75.7872 291.017 75.1199C290.616 74.4526 289.956 73.9387 289.035 73.5784C288.114 73.2047 286.873 73.0178 285.311 73.0178H280.486ZM321.847 75.2C321.847 77.0417 321.606 78.6767 321.126 80.1047C320.646 81.5328 319.945 82.7406 319.024 83.7283C318.103 84.7026 316.995 85.45 315.701 85.9705C314.406 86.4776 312.945 86.7312 311.316 86.7312C309.795 86.7312 308.4 86.4776 307.132 85.9705C305.864 85.45 304.763 84.7026 303.829 83.7283C302.908 82.7406 302.194 81.5328 301.687 80.1047C301.18 78.6767 300.926 77.0417 300.926 75.2C300.926 72.7576 301.347 70.6889 302.188 68.9939C303.042 67.2856 304.256 65.9843 305.831 65.0901C307.406 64.1959 309.281 63.7488 311.457 63.7488C313.499 63.7488 315.3 64.1959 316.862 65.0901C318.423 65.9843 319.645 67.2856 320.525 68.9939C321.406 70.7022 321.847 72.7709 321.847 75.2ZM305.771 75.2C305.771 76.8149 305.965 78.1962 306.352 79.344C306.752 80.4918 307.366 81.3726 308.193 81.9866C309.021 82.5872 310.089 82.8875 311.396 82.8875C312.704 82.8875 313.772 82.5872 314.6 81.9866C315.427 81.3726 316.034 80.4918 316.421 79.344C316.808 78.1962 317.002 76.8149 317.002 75.2C317.002 73.585 316.808 72.217 316.421 71.0959C316.034 69.9615 315.427 69.1007 314.6 68.5134C313.772 67.9128 312.698 67.6125 311.376 67.6125C309.428 67.6125 308.007 68.2665 307.112 69.5745C306.218 70.8824 305.771 72.7576 305.771 75.2ZM346.871 75.2C346.871 77.0417 346.631 78.6767 346.15 80.1047C345.67 81.5328 344.969 82.7406 344.048 83.7283C343.127 84.7026 342.02 85.45 340.725 85.9705C339.431 86.4776 337.969 86.7312 336.341 86.7312C334.819 86.7312 333.425 86.4776 332.157 85.9705C330.889 85.45 329.788 84.7026 328.854 83.7283C327.933 82.7406 327.219 81.5328 326.711 80.1047C326.204 78.6767 325.951 77.0417 325.951 75.2C325.951 72.7576 326.371 70.6889 327.212 68.9939C328.066 67.2856 329.281 65.9843 330.855 65.0901C332.43 64.1959 334.306 63.7488 336.481 63.7488C338.523 63.7488 340.325 64.1959 341.886 65.0901C343.448 65.9843 344.669 67.2856 345.55 68.9939C346.431 70.7022 346.871 72.7709 346.871 75.2ZM330.795 75.2C330.795 76.8149 330.989 78.1962 331.376 79.344C331.776 80.4918 332.39 81.3726 333.218 81.9866C334.045 82.5872 335.113 82.8875 336.421 82.8875C337.729 82.8875 338.797 82.5872 339.624 81.9866C340.451 81.3726 341.059 80.4918 341.446 79.344C341.833 78.1962 342.026 76.8149 342.026 75.2C342.026 73.585 341.833 72.217 341.446 71.0959C341.059 69.9615 340.451 69.1007 339.624 68.5134C338.797 67.9128 337.722 67.6125 336.401 67.6125C334.452 67.6125 333.031 68.2665 332.137 69.5745C331.243 70.8824 330.795 72.7576 330.795 75.2ZM360.524 82.9275C361.138 82.9275 361.746 82.8741 362.346 82.7673C362.947 82.6472 363.494 82.5071 363.988 82.3469V85.9104C363.467 86.1373 362.793 86.3308 361.966 86.491C361.138 86.6511 360.278 86.7312 359.383 86.7312C358.129 86.7312 357.001 86.5243 356 86.1106C354.999 85.6835 354.205 84.9561 353.618 83.9285C353.03 82.9008 352.737 81.4794 352.737 79.6643V67.7527H349.714V65.6506L352.957 63.989L354.499 59.2444H357.461V64.1692H363.808V67.7527H357.461V79.6042C357.461 80.7253 357.742 81.5595 358.302 82.1067C358.863 82.6539 359.604 82.9275 360.524 82.9275ZM383.387 80.0046C383.387 81.4594 383.033 82.6873 382.326 83.6882C381.618 84.6892 380.584 85.45 379.223 85.9705C377.875 86.4776 376.22 86.7312 374.258 86.7312C372.71 86.7312 371.375 86.6178 370.254 86.3909C369.146 86.1773 368.098 85.8437 367.111 85.3899V81.3259C368.165 81.8197 369.346 82.2468 370.654 82.6072C371.976 82.9675 373.223 83.1477 374.398 83.1477C375.946 83.1477 377.061 82.9075 377.741 82.427C378.422 81.9332 378.762 81.2792 378.762 80.4651C378.762 79.9846 378.622 79.5575 378.342 79.1838C378.075 78.7968 377.568 78.4031 376.82 78.0027C376.086 77.5889 375.005 77.0951 373.577 76.5212C372.176 75.9607 370.995 75.4001 370.034 74.8396C369.073 74.2791 368.345 73.6051 367.852 72.8176C367.358 72.0168 367.111 70.9958 367.111 69.7546C367.111 67.7927 367.885 66.3046 369.433 65.2903C370.995 64.2626 373.057 63.7488 375.619 63.7488C376.98 63.7488 378.262 63.8889 379.463 64.1692C380.677 64.4361 381.865 64.8298 383.026 65.3503L381.545 68.8938C380.544 68.4534 379.536 68.093 378.522 67.8127C377.521 67.5191 376.5 67.3723 375.459 67.3723C374.244 67.3723 373.317 67.5592 372.676 67.9329C372.049 68.3066 371.735 68.8404 371.735 69.5344C371.735 70.0549 371.889 70.4954 372.196 70.8557C372.503 71.2161 373.03 71.5764 373.777 71.9368C374.538 72.2971 375.592 72.7442 376.94 73.2781C378.262 73.7852 379.403 74.3191 380.364 74.8796C381.338 75.4268 382.085 76.1008 382.606 76.9016C383.126 77.7024 383.387 78.7367 383.387 80.0046ZM396.72 82.9275C397.334 82.9275 397.941 82.8741 398.542 82.7673C399.142 82.6472 399.689 82.5071 400.183 82.3469V85.9104C399.663 86.1373 398.989 86.3308 398.161 86.491C397.334 86.6511 396.473 86.7312 395.579 86.7312C394.324 86.7312 393.196 86.5243 392.195 86.1106C391.194 85.6835 390.4 84.9561 389.813 83.9285C389.226 82.9008 388.932 81.4794 388.932 79.6643V67.7527H385.909V65.6506L389.152 63.989L390.694 59.2444H393.657V64.1692H400.003V67.7527H393.657V79.6042C393.657 80.7253 393.937 81.5595 394.498 82.1067C395.058 82.6539 395.799 82.9275 396.72 82.9275ZM415.918 63.7488C416.292 63.7488 416.699 63.7688 417.14 63.8088C417.58 63.8489 417.96 63.9023 418.281 63.969L417.84 68.3733C417.56 68.2932 417.213 68.2332 416.799 68.1931C416.399 68.1531 416.039 68.1331 415.718 68.1331C414.877 68.1331 414.077 68.2732 413.316 68.5535C412.555 68.8204 411.881 69.2341 411.294 69.7947C410.707 70.3419 410.246 71.0292 409.913 71.8567C409.579 72.6842 409.412 73.6451 409.412 74.7395V86.3308H404.688V64.1692H408.371L409.012 68.073H409.232C409.672 67.2856 410.22 66.5649 410.874 65.9109C411.528 65.2569 412.275 64.7364 413.116 64.3494C413.97 63.949 414.904 63.7488 415.918 63.7488ZM431.073 63.7488C433.876 63.7488 435.991 64.3694 437.419 65.6106C438.861 66.8518 439.582 68.787 439.582 71.4163V86.3308H436.238L435.337 83.1877H435.177C434.55 83.9885 433.903 84.6492 433.235 85.1697C432.568 85.6902 431.794 86.0772 430.913 86.3308C430.046 86.5977 428.985 86.7312 427.73 86.7312C426.409 86.7312 425.228 86.491 424.187 86.0105C423.146 85.5167 422.325 84.7693 421.724 83.7683C421.124 82.7673 420.823 81.4994 420.823 79.9646C420.823 77.6824 421.671 75.9674 423.366 74.8196C425.074 73.6718 427.65 73.0378 431.093 72.9177L434.937 72.7776V71.6165C434.937 70.0816 434.577 68.9872 433.856 68.3333C433.149 67.6793 432.148 67.3523 430.853 67.3523C429.745 67.3523 428.671 67.5125 427.63 67.8328C426.589 68.1531 425.575 68.5468 424.587 69.0139L423.065 65.6907C424.146 65.1168 425.374 64.6497 426.749 64.2893C428.137 63.929 429.578 63.7488 431.073 63.7488ZM434.917 75.7405L432.054 75.8406C429.705 75.9207 428.057 76.321 427.109 77.0417C426.162 77.7625 425.688 78.7501 425.688 80.0046C425.688 81.099 426.015 81.8998 426.669 82.407C427.323 82.9008 428.184 83.1477 429.251 83.1477C430.88 83.1477 432.228 82.6873 433.295 81.7664C434.376 80.8321 434.917 79.4641 434.917 77.6624V75.7405ZM457.539 63.7488C460.168 63.7488 462.277 64.7097 463.865 66.6316C465.467 68.5535 466.268 71.4096 466.268 75.2C466.268 77.7091 465.894 79.8245 465.146 81.5461C464.412 83.2545 463.378 84.5491 462.043 85.4299C460.722 86.2974 459.181 86.7312 457.419 86.7312C456.298 86.7312 455.324 86.5844 454.496 86.2908C453.669 85.9972 452.961 85.6168 452.374 85.1497C451.787 84.6692 451.293 84.1487 450.893 83.5881H450.612C450.679 84.122 450.739 84.7159 450.792 85.3699C450.859 86.0105 450.893 86.5977 450.893 87.1316V96.1604H446.168V64.1692H450.012L450.672 67.2322H450.893C451.306 66.6049 451.807 66.0243 452.394 65.4905C452.995 64.9566 453.715 64.5362 454.556 64.2292C455.41 63.9089 456.405 63.7488 457.539 63.7488ZM456.278 67.5925C454.983 67.5925 453.942 67.8528 453.155 68.3733C452.381 68.8805 451.813 69.6479 451.453 70.6755C451.106 71.7032 450.919 72.9911 450.893 74.5393V75.2C450.893 76.8416 451.059 78.2362 451.393 79.384C451.74 80.5185 452.307 81.386 453.095 81.9866C453.896 82.5738 454.977 82.8674 456.338 82.8674C457.486 82.8674 458.433 82.5538 459.181 81.9265C459.941 81.2992 460.509 80.405 460.882 79.2439C461.256 78.0828 461.443 76.7148 461.443 75.1399C461.443 72.7509 461.016 70.8958 460.162 69.5745C459.321 68.2532 458.026 67.5925 456.278 67.5925Z" fill="#00D8FF"/>
</svg>
