<svg width="50" height="50" viewBox="0 0 50 50" fill="none" xmlns="http://www.w3.org/2000/svg">
<path d="M1.06689 24.7827C1.06572 28.9976 2.17197 33.1132 4.27549 36.7407L0.865723 49.1347L13.6063 45.809C17.1302 47.7188 21.0785 48.7195 25.0907 48.7198H25.1013C38.3464 48.7198 49.1282 37.9899 49.1339 24.8016C49.1364 18.4109 46.6388 12.4015 42.1009 7.88031C37.5638 3.35955 31.5296 0.868563 25.1003 0.865646C11.8536 0.865646 1.07256 11.5949 1.06709 24.7827" fill="url(#paint0_linear_3_150)"/>
<path d="M0.208984 24.7749C0.207617 29.1415 1.35352 33.4042 3.53203 37.1616L0 50L13.1975 46.5551C16.8338 48.5289 20.9279 49.5695 25.0939 49.5711H25.1047C38.825 49.5711 49.9941 38.4552 50 24.7948C50.0023 18.1744 47.4148 11.949 42.7148 7.26588C38.0143 2.58335 31.7643 0.00272218 25.1047 0C11.382 0 0.214453 11.1143 0.208984 24.7749ZM8.06855 36.5145L7.57578 35.7358C5.5043 32.4567 4.41094 28.6675 4.4125 24.7765C4.4168 13.4221 13.6988 4.18438 25.1125 4.18438C30.6398 4.18671 35.8344 6.33179 39.7414 10.2237C43.6482 14.116 45.798 19.2901 45.7967 24.7932C45.7916 36.1476 36.5094 45.3865 25.1047 45.3865H25.0965C21.383 45.3845 17.741 44.3917 14.5648 42.5156L13.809 42.0693L5.97734 44.1135L8.06855 36.5145Z" fill="url(#paint1_linear_3_150)"/>
<path d="M18.8823 14.4174C18.4163 13.3863 17.9259 13.3655 17.4827 13.3474C17.1198 13.3319 16.705 13.333 16.2905 13.333C15.8757 13.333 15.2017 13.4884 14.6319 14.1077C14.0616 14.7276 12.4546 16.2255 12.4546 19.2722C12.4546 22.3191 14.6837 25.2636 14.9944 25.6771C15.3056 26.0899 19.2978 32.5423 25.6204 35.0245C30.8751 37.0873 31.9444 36.6771 33.0849 36.5736C34.2255 36.4706 36.7653 35.076 37.2835 33.63C37.802 32.1841 37.8021 30.9447 37.6466 30.6857C37.4911 30.4277 37.0763 30.2728 36.4542 29.9632C35.8319 29.6535 32.7737 28.1553 32.2036 27.9486C31.6333 27.7421 31.2187 27.639 30.8038 28.2591C30.389 28.8782 29.1978 30.2728 28.8347 30.6857C28.472 31.0997 28.1089 31.1512 27.487 30.8415C26.8645 30.5308 24.8612 29.8776 22.4845 27.7682C20.6353 26.1267 19.3868 24.0996 19.0239 23.4796C18.661 22.8605 18.9851 22.5249 19.297 22.2163C19.5765 21.9388 19.9192 21.4931 20.2306 21.1317C20.5407 20.77 20.6442 20.512 20.8517 20.099C21.0593 19.6856 20.9554 19.324 20.8001 19.0142C20.6442 18.7045 19.4354 15.6418 18.8823 14.4174Z" fill="white"/>
<defs>
<linearGradient id="paint0_linear_3_150" x1="2414.27" y1="4827.77" x2="2414.27" y2="0.865646" gradientUnits="userSpaceOnUse">
<stop stop-color="#1FAF38"/>
<stop offset="1" stop-color="#60D669"/>
</linearGradient>
<linearGradient id="paint1_linear_3_150" x1="2500" y1="5000" x2="2500" y2="0" gradientUnits="userSpaceOnUse">
<stop stop-color="#F9F9F9"/>
<stop offset="1" stop-color="white"/>
</linearGradient>
</defs>
</svg>
